<mxfile host="app.diagrams.net" modified="2024-07-03T18:01:25.070Z" agent="Mozilla/5.0 (X11; Linux x86_64; rv:127.0) Gecko/20100101 Firefox/127.0" etag="bbS7H8H1upbXjkQjc2ga" version="24.6.1" type="device">
  <diagram name="Page-1" id="LzTfIg2ZTYymwVpEtpaJ">
    <mxGraphModel dx="1434" dy="758" grid="1" gridSize="10" guides="1" tooltips="1" connect="1" arrows="1" fold="1" page="1" pageScale="1" pageWidth="850" pageHeight="1100" math="0" shadow="0">
      <root>
        <mxCell id="0" />
        <mxCell id="1" parent="0" />
        <mxCell id="cvF3WgK3ybrRTaca26hi-2" value="" style="rounded=1;whiteSpace=wrap;html=1;" vertex="1" parent="1">
          <mxGeometry x="40" y="120" width="710" height="330" as="geometry" />
        </mxCell>
        <mxCell id="cvF3WgK3ybrRTaca26hi-24" style="edgeStyle=orthogonalEdgeStyle;rounded=0;orthogonalLoop=1;jettySize=auto;html=1;exitX=1;exitY=0.5;exitDx=0;exitDy=0;entryX=0;entryY=0.5;entryDx=0;entryDy=0;" edge="1" parent="1" source="cvF3WgK3ybrRTaca26hi-3" target="cvF3WgK3ybrRTaca26hi-8">
          <mxGeometry relative="1" as="geometry" />
        </mxCell>
        <mxCell id="cvF3WgK3ybrRTaca26hi-3" value="" style="rounded=1;whiteSpace=wrap;html=1;" vertex="1" parent="1">
          <mxGeometry x="305" y="170" width="185" height="250" as="geometry" />
        </mxCell>
        <mxCell id="cvF3WgK3ybrRTaca26hi-22" style="edgeStyle=orthogonalEdgeStyle;rounded=0;orthogonalLoop=1;jettySize=auto;html=1;exitX=0;exitY=0.5;exitDx=0;exitDy=0;entryX=1;entryY=0.25;entryDx=0;entryDy=0;" edge="1" parent="1" source="cvF3WgK3ybrRTaca26hi-4" target="cvF3WgK3ybrRTaca26hi-12">
          <mxGeometry relative="1" as="geometry" />
        </mxCell>
        <mxCell id="cvF3WgK3ybrRTaca26hi-4" value="&lt;div&gt;&lt;b&gt;MQTT Topic&lt;/b&gt;&lt;/div&gt;&lt;div&gt;vanetza/out/cam&lt;b&gt;&lt;br&gt;&lt;/b&gt;&lt;/div&gt;" style="rounded=1;whiteSpace=wrap;html=1;" vertex="1" parent="1">
          <mxGeometry x="320" y="190" width="160" height="60" as="geometry" />
        </mxCell>
        <mxCell id="cvF3WgK3ybrRTaca26hi-6" value="&lt;div&gt;&lt;b&gt;MQTT Topic&lt;/b&gt;&lt;/div&gt;&lt;div&gt;vanetza/in/cam&lt;br&gt;&lt;/div&gt;" style="rounded=1;whiteSpace=wrap;html=1;" vertex="1" parent="1">
          <mxGeometry x="320" y="270" width="160" height="60" as="geometry" />
        </mxCell>
        <mxCell id="cvF3WgK3ybrRTaca26hi-23" style="edgeStyle=orthogonalEdgeStyle;rounded=0;orthogonalLoop=1;jettySize=auto;html=1;entryX=0;entryY=0.75;entryDx=0;entryDy=0;" edge="1" parent="1" source="cvF3WgK3ybrRTaca26hi-7" target="cvF3WgK3ybrRTaca26hi-8">
          <mxGeometry relative="1" as="geometry" />
        </mxCell>
        <mxCell id="cvF3WgK3ybrRTaca26hi-7" value="&lt;div&gt;&lt;b&gt;MQTT Topic&lt;/b&gt;&lt;/div&gt;&lt;div&gt;vanetza/in/spatem&lt;br&gt;&lt;/div&gt;" style="rounded=1;whiteSpace=wrap;html=1;" vertex="1" parent="1">
          <mxGeometry x="320" y="340" width="160" height="60" as="geometry" />
        </mxCell>
        <mxCell id="cvF3WgK3ybrRTaca26hi-20" style="edgeStyle=orthogonalEdgeStyle;rounded=0;orthogonalLoop=1;jettySize=auto;html=1;entryX=0;entryY=0.5;entryDx=0;entryDy=0;" edge="1" parent="1" source="cvF3WgK3ybrRTaca26hi-12" target="cvF3WgK3ybrRTaca26hi-6">
          <mxGeometry relative="1" as="geometry" />
        </mxCell>
        <mxCell id="cvF3WgK3ybrRTaca26hi-12" value="&lt;div&gt;&lt;b&gt;Station.py&lt;/b&gt;&lt;/div&gt;&lt;div&gt;Algorithim Street Priority&lt;b&gt;&lt;br&gt;&lt;/b&gt;&lt;/div&gt;&lt;div&gt;&lt;b&gt;&lt;br&gt;&lt;/b&gt;&lt;/div&gt;&lt;div&gt;Subscribe cam&lt;/div&gt;&lt;div&gt;&lt;br&gt;&lt;/div&gt;&lt;div&gt;Publish cam&lt;/div&gt;&lt;div&gt;Publish spatem&lt;br&gt;&lt;/div&gt;" style="rounded=1;whiteSpace=wrap;html=1;" vertex="1" parent="1">
          <mxGeometry x="70" y="210" width="185" height="180" as="geometry" />
        </mxCell>
        <mxCell id="cvF3WgK3ybrRTaca26hi-13" value="" style="group" vertex="1" connectable="0" parent="1">
          <mxGeometry x="540" y="175" width="185" height="180" as="geometry" />
        </mxCell>
        <mxCell id="cvF3WgK3ybrRTaca26hi-8" value="" style="rounded=1;whiteSpace=wrap;html=1;" vertex="1" parent="cvF3WgK3ybrRTaca26hi-13">
          <mxGeometry width="185" height="180" as="geometry" />
        </mxCell>
        <mxCell id="cvF3WgK3ybrRTaca26hi-10" value="&lt;b&gt;NAP-Vanetza&lt;/b&gt;" style="rounded=1;whiteSpace=wrap;html=1;" vertex="1" parent="cvF3WgK3ybrRTaca26hi-13">
          <mxGeometry x="12.5" y="20" width="160" height="60" as="geometry" />
        </mxCell>
        <mxCell id="cvF3WgK3ybrRTaca26hi-11" value="&lt;b&gt;Vanetza&lt;/b&gt;" style="rounded=1;whiteSpace=wrap;html=1;" vertex="1" parent="cvF3WgK3ybrRTaca26hi-13">
          <mxGeometry x="12.5" y="100" width="160" height="60" as="geometry" />
        </mxCell>
        <mxCell id="cvF3WgK3ybrRTaca26hi-21" style="edgeStyle=orthogonalEdgeStyle;rounded=0;orthogonalLoop=1;jettySize=auto;html=1;exitX=1;exitY=0.75;exitDx=0;exitDy=0;entryX=0.013;entryY=0.617;entryDx=0;entryDy=0;entryPerimeter=0;" edge="1" parent="1" source="cvF3WgK3ybrRTaca26hi-12" target="cvF3WgK3ybrRTaca26hi-7">
          <mxGeometry relative="1" as="geometry" />
        </mxCell>
        <mxCell id="cvF3WgK3ybrRTaca26hi-25" style="edgeStyle=orthogonalEdgeStyle;rounded=0;orthogonalLoop=1;jettySize=auto;html=1;exitX=0;exitY=0.25;exitDx=0;exitDy=0;entryX=1;entryY=0.5;entryDx=0;entryDy=0;" edge="1" parent="1" source="cvF3WgK3ybrRTaca26hi-8" target="cvF3WgK3ybrRTaca26hi-4">
          <mxGeometry relative="1" as="geometry" />
        </mxCell>
        <mxCell id="cvF3WgK3ybrRTaca26hi-26" value="" style="shape=image;html=1;verticalAlign=top;verticalLabelPosition=bottom;labelBackgroundColor=#ffffff;imageAspect=0;aspect=fixed;image=https://cdn0.iconfinder.com/data/icons/google-material-design-3-0/48/ic_settings_input_antenna_48px-128.png" vertex="1" parent="1">
          <mxGeometry x="70" y="140" width="50" height="50" as="geometry" />
        </mxCell>
        <mxCell id="cvF3WgK3ybrRTaca26hi-27" value="&lt;div align=&quot;left&quot;&gt;&lt;font style=&quot;font-size: 24px;&quot;&gt;&lt;b&gt;&lt;font style=&quot;font-size: 24px;&quot;&gt;Station&lt;/font&gt;&lt;/b&gt;&lt;/font&gt;&lt;/div&gt;&lt;div style=&quot;font-size: 15px;&quot; align=&quot;left&quot;&gt;&lt;font style=&quot;font-size: 15px;&quot;&gt;&lt;font style=&quot;font-size: 15px;&quot;&gt;RSU&lt;/font&gt;&lt;font style=&quot;font-size: 15px;&quot;&gt;&lt;b&gt;&lt;font style=&quot;font-size: 15px;&quot;&gt;&lt;br&gt;&lt;/font&gt;&lt;/b&gt;&lt;/font&gt;&lt;/font&gt;&lt;/div&gt;" style="text;html=1;align=left;verticalAlign=middle;whiteSpace=wrap;rounded=0;" vertex="1" parent="1">
          <mxGeometry x="130" y="150" width="100" height="30" as="geometry" />
        </mxCell>
      </root>
    </mxGraphModel>
  </diagram>
</mxfile>
